<?xml version="1.0" encoding="UTF-8" standalone="no"?>
<!-- Created with Inkscape (http://www.inkscape.org/) -->

<svg
   xmlns:dc="http://purl.org/dc/elements/1.1/"
   xmlns:cc="http://creativecommons.org/ns#"
   xmlns:rdf="http://www.w3.org/1999/02/22-rdf-syntax-ns#"
   xmlns:svg="http://www.w3.org/2000/svg"
   xmlns="http://www.w3.org/2000/svg"
   xmlns:sodipodi="http://sodipodi.sourceforge.net/DTD/sodipodi-0.dtd"
   xmlns:inkscape="http://www.inkscape.org/namespaces/inkscape"
   width="217.79015mm"
   height="289.23096mm"
   viewBox="0 0 771.69733 1024.8333"
   id="svg2"
   version="1.1"
   inkscape:version="0.91 r13725"
   sodipodi:docname="map-marker-muth-o.svg"
   inkscape:export-filename="C:\Users\Jojo\Desktop\Muth logo Final Icon.png"
   inkscape:export-xdpi="90"
   inkscape:export-ydpi="90">
  <defs
     id="defs4">
    <filter
       style="color-interpolation-filters:sRGB"
       inkscape:label="Invert"
       id="filter4281">
      <feColorMatrix
         values="1 0 0 0 0 0 1 0 0 0 0 0 1 0 0 -0.21 -0.72 -0.07 2 0 "
         result="fbSourceGraphic"
         id="feColorMatrix4283" />
      <feColorMatrix
         result="fbSourceGraphicAlpha"
         in="fbSourceGraphic"
         values="0 0 0 -1 0 0 0 0 -1 0 0 0 0 -1 0 0 0 0 1 0"
         id="feColorMatrix4285" />
      <feColorMatrix
         id="feColorMatrix4287"
         type="hueRotate"
         values="180"
         result="color1"
         in="fbSourceGraphic" />
      <feColorMatrix
         id="feColorMatrix4289"
         values="1 0 0 0 0 0 1 0 0 0 0 0 1 0 0 -0.21 -0.72 -0.07 2 0 "
         result="fbSourceGraphic" />
      <feColorMatrix
         result="fbSourceGraphicAlpha"
         in="fbSourceGraphic"
         values="0 0 0 -1 0 0 0 0 -1 0 0 0 0 -1 0 0 0 0 1 0"
         id="feColorMatrix4291" />
      <feColorMatrix
         id="feColorMatrix4293"
         values="-1 0 0 0 1 0 -1 0 0 1 0 0 -1 0 1 -0.21 -0.72 -0.07 2 0 "
         result="fbSourceGraphic"
         in="fbSourceGraphic" />
      <feColorMatrix
         result="fbSourceGraphicAlpha"
         in="fbSourceGraphic"
         values="0 0 0 -1 0 0 0 0 -1 0 0 0 0 -1 0 0 0 0 1 0"
         id="feColorMatrix4295" />
      <feColorMatrix
         id="feColorMatrix4297"
         values="-1 0 0 0 1 0 -1 0 0 1 0 0 -1 0 1 -0.21 -0.72 -0.07 2 0 "
         result="fbSourceGraphic"
         in="fbSourceGraphic" />
      <feColorMatrix
         result="fbSourceGraphicAlpha"
         in="fbSourceGraphic"
         values="0 0 0 -1 0 0 0 0 -1 0 0 0 0 -1 0 0 0 0 1 0"
         id="feColorMatrix4299" />
      <feColorMatrix
         id="feColorMatrix4301"
         values="-1 0 0 0 1 0 -1 0 0 1 0 0 -1 0 1 0.21 0.72 0.07 1 0 "
         result="fbSourceGraphic"
         in="fbSourceGraphic" />
      <feColorMatrix
         result="fbSourceGraphicAlpha"
         in="fbSourceGraphic"
         values="0 0 0 -1 0 0 0 0 -1 0 0 0 0 -1 0 0 0 0 1 0"
         id="feColorMatrix4303" />
      <feColorMatrix
         id="feColorMatrix4305"
         type="hueRotate"
         values="180"
         result="color1"
         in="fbSourceGraphic" />
      <feColorMatrix
         id="feColorMatrix4307"
         values="-1 0 0 0 1 0 -1 0 0 1 0 0 -1 0 1 0.21 0.72 0.07 1 0 "
         result="fbSourceGraphic" />
      <feColorMatrix
         result="fbSourceGraphicAlpha"
         in="fbSourceGraphic"
         values="0 0 0 -1 0 0 0 0 -1 0 0 0 0 -1 0 0 0 0 1 0"
         id="feColorMatrix4309" />
      <feColorMatrix
         id="feColorMatrix4311"
         values="1 0 0 0 0 0 1 0 0 0 0 0 1 0 0 0.21 0.72 0.07 1 0 "
         result="fbSourceGraphic"
         in="fbSourceGraphic" />
      <feColorMatrix
         result="fbSourceGraphicAlpha"
         in="fbSourceGraphic"
         values="0 0 0 -1 0 0 0 0 -1 0 0 0 0 -1 0 0 0 0 1 0"
         id="feColorMatrix4313" />
      <feColorMatrix
         id="feColorMatrix4315"
         type="hueRotate"
         values="180"
         result="color1"
         in="fbSourceGraphic" />
      <feColorMatrix
         id="feColorMatrix4317"
         values="-1 0 0 0 1 0 -1 0 0 1 0 0 -1 0 1 0.21 0.72 0.07 1 0 "
         result="fbSourceGraphic" />
      <feColorMatrix
         result="fbSourceGraphicAlpha"
         in="fbSourceGraphic"
         values="0 0 0 -1 0 0 0 0 -1 0 0 0 0 -1 0 0 0 0 1 0"
         id="feColorMatrix4319" />
      <feColorMatrix
         id="feColorMatrix4321"
         type="hueRotate"
         values="180"
         result="color1"
         in="fbSourceGraphic" />
      <feColorMatrix
         id="feColorMatrix4323"
         values="-1 0 0 0 1 0 -1 0 0 1 0 0 -1 0 1 0.21 0.72 0.07 1 0 "
         result="fbSourceGraphic" />
      <feColorMatrix
         result="fbSourceGraphicAlpha"
         in="fbSourceGraphic"
         values="0 0 0 -1 0 0 0 0 -1 0 0 0 0 -1 0 0 0 0 1 0"
         id="feColorMatrix4325" />
      <feColorMatrix
         id="feColorMatrix4327"
         type="hueRotate"
         values="180"
         result="color1"
         in="fbSourceGraphic" />
      <feColorMatrix
         id="feColorMatrix4329"
         values="-1 0 0 0 1 0 -1 0 0 1 0 0 -1 0 1 0.21 0.72 0.07 1 0 "
         result="color2" />
    </filter>
  </defs>
  <sodipodi:namedview
     id="base"
     pagecolor="#ffffff"
     bordercolor="#666666"
     borderopacity="1"
     inkscape:pageopacity="0"
     inkscape:pageshadow="2"
     inkscape:zoom="0.046845824"
     inkscape:cx="-4356.6467"
     inkscape:cy="1300.838"
     inkscape:document-units="px"
     inkscape:current-layer="layer1"
     showgrid="false"
     inkscape:window-width="1920"
     inkscape:window-height="1017"
     inkscape:window-x="-8"
     inkscape:window-y="-8"
     inkscape:window-maximized="1"
     showguides="true"
     fit-margin-top="0"
     fit-margin-left="0"
     fit-margin-right="0"
     fit-margin-bottom="0"
     inkscape:guide-bbox="true">
    <sodipodi:guide
       position="1986.4711,719.16046"
       orientation="1,0"
       id="guide4189" />
  </sodipodi:namedview>
  <metadata
     id="metadata7">
    <rdf:RDF>
      <cc:Work
         rdf:about="">
        <dc:format>image/svg+xml</dc:format>
        <dc:type
           rdf:resource="http://purl.org/dc/dcmitype/StillImage" />
        <dc:title></dc:title>
      </cc:Work>
    </rdf:RDF>
  </metadata>
  <g
     inkscape:label="Layer 1"
     inkscape:groupmode="layer"
     id="layer1"
     transform="translate(998.91555,180.88887)"
     style="display:inline">
    <text
       xml:space="preserve"
       style="font-style:normal;font-weight:normal;font-size:70px;line-height:125%;font-family:sans-serif;letter-spacing:0px;word-spacing:0px;fill:#000000;fill-opacity:1;stroke:none;stroke-width:1px;stroke-linecap:butt;stroke-linejoin:miter;stroke-opacity:1"
       x="195"
       y="536.86218"
       id="text4240"
       sodipodi:linespacing="125%"><tspan
         sodipodi:role="line"
         id="tspan4242"
         x="195"
         y="536.86218" /></text>
    <path
       inkscape:connector-curvature="0"
       id="path4846"
       d="m -613.0659,-180.88924 c -213.0985,3e-5 -385.8496,169.79274 -385.8496,379.24414 0,209.45137 387.5078,645.58985 387.5078,645.58985 0,0 384.1895,-436.13845 384.1895,-645.58985 0,-209.45143 -172.749,-379.24416 -385.8477,-379.24414 z m 0,100 a 275,275 0 0 1 275,275 275,275 0 0 1 -275,275.00001 275,275 0 0 1 -275,-275.00001 275,275 0 0 1 275,-275 z"
       style="fill:#000000;fill-opacity:1;stroke:none;stroke-width:14.99999809;stroke-miterlimit:4;stroke-dasharray:none;stroke-opacity:1" />
    <path
       inkscape:connector-curvature="0"
       id="rect4321"
       d="m -718.8853,44.179689 c -30.0163,0 -54.1816,24.165266 -54.1816,54.181639 l 0,211.636722 c 0,30.01641 24.1653,54.18164 54.1816,54.18164 l 211.6368,0 c 30.0163,0 54.1816,-24.16523 54.1816,-54.18164 l 0,-211.636722 c 0,-30.016373 -24.1653,-54.181639 -54.1816,-54.181639 l -211.6368,0 z m 64.8516,59.691401 c 83.434,-0.0715 76.1071,60.26031 75.8672,65.36328 0.027,0.0767 0.061,0.164 0.088,0.24024 -0.088,0.2303 -0.1048,0.11963 -0.088,-0.24024 -4.111,-11.80616 -11.7262,-28.75602 -22.793,-38.4375 -17.0651,-14.92901 -40.2991,-19.50642 -55.6738,-15.61914 -19.3749,5.62481 -28.1708,41.72819 13.0195,43.63477 7.4868,-0.33564 13.7974,-0.60577 14.5176,-0.57813 0,1.4e-4 0.011,-1.4e-4 0.014,0 0.09,0.004 0.1221,0.0118 0.031,0.0254 -18.4756,2.75386 -27.7052,9.89608 -33.3691,14.84375 -7.726,6.74885 -13.8937,18.04096 -15.4219,20.90819 -8.5249,15.99464 -4.521,44.6832 -5.1641,75.9004 -3.2116,-7.32176 -5.8397,-14.35622 -8.0097,-21.10546 -8.9182,0.33698 -69.7341,0.49941 -62.4786,-58.50782 3.0953,-25.17248 26.707,-55.4336 26.7071,-55.4336 0,0 -18.6267,26.18464 -17.8438,53.35548 1.4656,50.86161 48.3067,41.11914 48.3067,41.11914 l 0.3457,1.03515 c -0.313,-1.46131 -0.6059,-2.90672 -0.8731,-4.33007 -0.5165,-0.267 -18.549,-9.70104 -21.0156,-27.34181 -2.6541,-18.98138 6.6621,-34.92968 6.6621,-34.92968 0,0 -2.8337,18.24529 0.498,30.72655 2.4507,9.18059 8.6885,12.41503 11.5176,13.43947 -1.9043,-27.85285 5.1928,-45.07119 10.0821,-46.85743 -4.9981,-8.55386 10.5311,-56.65215 30.7421,-57.15625 1.4707,-0.0367 2.9143,-0.0535 4.3321,-0.0547 z m 14.6426,24.66407 c 2.6645,0.7018 5.6249,1.84432 7.3398,5.32226 1.715,3.47794 0.3524,7.14577 -0.7695,8.83008 -2.2439,3.36862 -4.7227,4.42383 -4.7227,4.42383 l -6.8789,-11.11328 c -0.3116,0.88262 -0.6257,2.27727 0.1641,3.8789 1.0551,2.1398 2.2549,2.04344 1.4004,1.81836 -1.7514,-0.46129 -3.4397,-1.80874 -4.2735,-3.07617 -0.8337,-1.26743 -1.0689,-2.33607 -1.1933,-3.15039 -0.2488,-1.62865 -0.066,-2.54087 0.066,-3.33984 0.2654,-1.59794 0.7051,-2.76563 0.7051,-2.76563 l 12.6972,4.41016 c -10e-4,-0.14387 0.041,-7.9e-4 -0.014,-0.35938 -0.072,-0.4706 -0.21,-1.24073 -0.8906,-2.27539 -0.6806,-1.03466 -2.1595,-2.21597 -3.6308,-2.60351 z m 21.1093,35.32812 c 19.3686,0 33.9773,6.42903 43.8243,19.28711 9.7656,-12.85808 24.3326,-19.28711 43.7011,-19.28711 16.1947,0 30.0293,5.73828 41.5039,17.2129 11.4747,11.55598 17.211,25.39062 17.211,41.5039 l 0,67.13868 c 0,4.06901 -1.4232,7.52664 -4.2715,10.375 -2.9297,2.92968 -6.429,4.39453 -10.498,4.39453 l -0.2442,0 c -4.1504,0 -7.61,-1.46485 -10.3769,-4.39453 -2.9297,-2.76698 -4.3946,-6.22461 -4.3946,-10.375 l 0,-67.13868 c 0,-7.97526 -2.8066,-14.77143 -8.4218,-20.38672 -5.6153,-5.61524 -12.4512,-8.42188 -20.5079,-8.42188 -7.9752,0 -14.7714,2.80664 -20.3867,8.42188 -5.6152,5.61529 -8.4219,12.41146 -8.4219,20.38672 l 0,67.13868 c 0,4.15039 -1.4648,7.60802 -4.3945,10.375 -2.7669,2.92968 -6.2265,4.39453 -10.3769,4.39453 l -0.2442,0 c -4.069,0 -7.5683,-1.46485 -10.498,-4.39453 -2.9297,-2.76698 -4.3946,-6.22461 -4.3946,-10.375 l 0,-67.13868 c 0,-7.97526 -2.8066,-14.77143 -8.4218,-20.38672 -5.6153,-5.61524 -12.4114,-8.42188 -20.3868,-8.42188 -7.9752,0 -14.7695,2.80664 -20.3847,8.42188 -5.6153,5.61529 -8.4238,12.41146 -8.4238,20.38672 l 0,67.13868 c 0,4.15039 -1.4649,7.60802 -4.3946,10.375 -2.9297,2.92968 -6.3873,4.39453 -10.375,4.39453 l -0.3672,0 c -3.9876,0 -7.4453,-1.46485 -10.375,-4.39453 -2.9297,-2.76698 -4.3945,-6.22461 -4.3945,-10.375 l 0,-67.13868 c 0,-16.11328 5.7363,-29.94792 17.2109,-41.5039 11.4747,-11.47462 25.3093,-17.2129 41.5039,-17.2129 z"
       style="font-style:normal;font-weight:normal;font-size:medium;line-height:125%;font-family:sans-serif;letter-spacing:0px;word-spacing:0px;fill:#000000;fill-opacity:1;stroke:none;stroke-width:14.99999809;stroke-linecap:butt;stroke-linejoin:miter;stroke-miterlimit:4;stroke-dasharray:none;stroke-opacity:1" />
    <flowRoot
       transform="translate(298.74968,162.44422)"
       style="font-style:normal;font-weight:normal;font-size:375px;line-height:125%;font-family:sans-serif;letter-spacing:0px;word-spacing:0px;fill:#000000;fill-opacity:1;stroke:none;stroke-width:14.99999809;stroke-linecap:butt;stroke-linejoin:miter;stroke-miterlimit:4;stroke-dasharray:none;stroke-opacity:1"
       id="flowRoot4179"
       xml:space="preserve"><flowRegion
         id="flowRegion4181"><rect
           y="-259.6427"
           x="-559.99994"
           height="1231.9999"
           width="2213.9998"
           id="rect4183"
           style="stroke:none;stroke-width:14.99999809;stroke-miterlimit:4;stroke-dasharray:none;stroke-opacity:1" /></flowRegion><flowPara
         id="flowPara4185" /></flowRoot>  </g>
</svg>
