<?xml version="1.0" encoding="UTF-8" standalone="no"?>
<!-- Created with Inkscape (http://www.inkscape.org/) -->

<svg
   xmlns:dc="http://purl.org/dc/elements/1.1/"
   xmlns:cc="http://creativecommons.org/ns#"
   xmlns:rdf="http://www.w3.org/1999/02/22-rdf-syntax-ns#"
   xmlns:svg="http://www.w3.org/2000/svg"
   xmlns="http://www.w3.org/2000/svg"
   xmlns:sodipodi="http://sodipodi.sourceforge.net/DTD/sodipodi-0.dtd"
   xmlns:inkscape="http://www.inkscape.org/namespaces/inkscape"
   width="216.74741mm"
   height="288.99554mm"
   viewBox="0 0 768.00258 1023.9992"
   id="svg2"
   version="1.1"
   inkscape:version="0.91 r13725"
   sodipodi:docname="map-marker-muth.svg"
   inkscape:export-filename="C:\Users\Jojo\Desktop\Muth logo Final Icon.png"
   inkscape:export-xdpi="90"
   inkscape:export-ydpi="90">
  <defs
     id="defs4">
    <filter
       style="color-interpolation-filters:sRGB"
       inkscape:label="Invert"
       id="filter4281">
      <feColorMatrix
         values="1 0 0 0 0 0 1 0 0 0 0 0 1 0 0 -0.21 -0.72 -0.07 2 0 "
         result="fbSourceGraphic"
         id="feColorMatrix4283" />
      <feColorMatrix
         result="fbSourceGraphicAlpha"
         in="fbSourceGraphic"
         values="0 0 0 -1 0 0 0 0 -1 0 0 0 0 -1 0 0 0 0 1 0"
         id="feColorMatrix4285" />
      <feColorMatrix
         id="feColorMatrix4287"
         type="hueRotate"
         values="180"
         result="color1"
         in="fbSourceGraphic" />
      <feColorMatrix
         id="feColorMatrix4289"
         values="1 0 0 0 0 0 1 0 0 0 0 0 1 0 0 -0.21 -0.72 -0.07 2 0 "
         result="fbSourceGraphic" />
      <feColorMatrix
         result="fbSourceGraphicAlpha"
         in="fbSourceGraphic"
         values="0 0 0 -1 0 0 0 0 -1 0 0 0 0 -1 0 0 0 0 1 0"
         id="feColorMatrix4291" />
      <feColorMatrix
         id="feColorMatrix4293"
         values="-1 0 0 0 1 0 -1 0 0 1 0 0 -1 0 1 -0.21 -0.72 -0.07 2 0 "
         result="fbSourceGraphic"
         in="fbSourceGraphic" />
      <feColorMatrix
         result="fbSourceGraphicAlpha"
         in="fbSourceGraphic"
         values="0 0 0 -1 0 0 0 0 -1 0 0 0 0 -1 0 0 0 0 1 0"
         id="feColorMatrix4295" />
      <feColorMatrix
         id="feColorMatrix4297"
         values="-1 0 0 0 1 0 -1 0 0 1 0 0 -1 0 1 -0.21 -0.72 -0.07 2 0 "
         result="fbSourceGraphic"
         in="fbSourceGraphic" />
      <feColorMatrix
         result="fbSourceGraphicAlpha"
         in="fbSourceGraphic"
         values="0 0 0 -1 0 0 0 0 -1 0 0 0 0 -1 0 0 0 0 1 0"
         id="feColorMatrix4299" />
      <feColorMatrix
         id="feColorMatrix4301"
         values="-1 0 0 0 1 0 -1 0 0 1 0 0 -1 0 1 0.21 0.72 0.07 1 0 "
         result="fbSourceGraphic"
         in="fbSourceGraphic" />
      <feColorMatrix
         result="fbSourceGraphicAlpha"
         in="fbSourceGraphic"
         values="0 0 0 -1 0 0 0 0 -1 0 0 0 0 -1 0 0 0 0 1 0"
         id="feColorMatrix4303" />
      <feColorMatrix
         id="feColorMatrix4305"
         type="hueRotate"
         values="180"
         result="color1"
         in="fbSourceGraphic" />
      <feColorMatrix
         id="feColorMatrix4307"
         values="-1 0 0 0 1 0 -1 0 0 1 0 0 -1 0 1 0.21 0.72 0.07 1 0 "
         result="fbSourceGraphic" />
      <feColorMatrix
         result="fbSourceGraphicAlpha"
         in="fbSourceGraphic"
         values="0 0 0 -1 0 0 0 0 -1 0 0 0 0 -1 0 0 0 0 1 0"
         id="feColorMatrix4309" />
      <feColorMatrix
         id="feColorMatrix4311"
         values="1 0 0 0 0 0 1 0 0 0 0 0 1 0 0 0.21 0.72 0.07 1 0 "
         result="fbSourceGraphic"
         in="fbSourceGraphic" />
      <feColorMatrix
         result="fbSourceGraphicAlpha"
         in="fbSourceGraphic"
         values="0 0 0 -1 0 0 0 0 -1 0 0 0 0 -1 0 0 0 0 1 0"
         id="feColorMatrix4313" />
      <feColorMatrix
         id="feColorMatrix4315"
         type="hueRotate"
         values="180"
         result="color1"
         in="fbSourceGraphic" />
      <feColorMatrix
         id="feColorMatrix4317"
         values="-1 0 0 0 1 0 -1 0 0 1 0 0 -1 0 1 0.21 0.72 0.07 1 0 "
         result="fbSourceGraphic" />
      <feColorMatrix
         result="fbSourceGraphicAlpha"
         in="fbSourceGraphic"
         values="0 0 0 -1 0 0 0 0 -1 0 0 0 0 -1 0 0 0 0 1 0"
         id="feColorMatrix4319" />
      <feColorMatrix
         id="feColorMatrix4321"
         type="hueRotate"
         values="180"
         result="color1"
         in="fbSourceGraphic" />
      <feColorMatrix
         id="feColorMatrix4323"
         values="-1 0 0 0 1 0 -1 0 0 1 0 0 -1 0 1 0.21 0.72 0.07 1 0 "
         result="fbSourceGraphic" />
      <feColorMatrix
         result="fbSourceGraphicAlpha"
         in="fbSourceGraphic"
         values="0 0 0 -1 0 0 0 0 -1 0 0 0 0 -1 0 0 0 0 1 0"
         id="feColorMatrix4325" />
      <feColorMatrix
         id="feColorMatrix4327"
         type="hueRotate"
         values="180"
         result="color1"
         in="fbSourceGraphic" />
      <feColorMatrix
         id="feColorMatrix4329"
         values="-1 0 0 0 1 0 -1 0 0 1 0 0 -1 0 1 0.21 0.72 0.07 1 0 "
         result="color2" />
    </filter>
  </defs>
  <sodipodi:namedview
     id="base"
     pagecolor="#ffffff"
     bordercolor="#666666"
     borderopacity="1"
     inkscape:pageopacity="0"
     inkscape:pageshadow="2"
     inkscape:zoom="0.70710684"
     inkscape:cx="107.43748"
     inkscape:cy="561.13539"
     inkscape:document-units="px"
     inkscape:current-layer="g4219"
     showgrid="false"
     inkscape:window-width="1920"
     inkscape:window-height="1017"
     inkscape:window-x="-8"
     inkscape:window-y="-8"
     inkscape:window-maximized="1"
     showguides="true"
     fit-margin-top="0"
     fit-margin-left="0"
     fit-margin-right="0"
     fit-margin-bottom="0"
     inkscape:guide-bbox="true">
    <sodipodi:guide
       position="1986.4709,713.19317"
       orientation="1,0"
       id="guide4189" />
  </sodipodi:namedview>
  <metadata
     id="metadata7">
    <rdf:RDF>
      <cc:Work
         rdf:about="">
        <dc:format>image/svg+xml</dc:format>
        <dc:type
           rdf:resource="http://purl.org/dc/dcmitype/StillImage" />
        <dc:title />
      </cc:Work>
    </rdf:RDF>
  </metadata>
  <g
     inkscape:label="Layer 1"
     inkscape:groupmode="layer"
     id="layer1"
     transform="translate(998.91532,186.02182)">
    <text
       xml:space="preserve"
       style="font-style:normal;font-weight:normal;font-size:70px;line-height:125%;font-family:sans-serif;letter-spacing:0px;word-spacing:0px;fill:#000000;fill-opacity:1;stroke:none;stroke-width:1px;stroke-linecap:butt;stroke-linejoin:miter;stroke-opacity:1"
       x="195"
       y="536.86218"
       id="text4240"
       sodipodi:linespacing="125%"><tspan
         sodipodi:role="line"
         id="tspan4242"
         x="195"
         y="536.86218" /></text>
    <g
       id="g4423"
       transform="translate(67.882251,175.36248)">
      <g
         id="g4459" />
      <g
         id="g4482"
         transform="translate(51.618795,-33.941125)"
         style="fill:#4a6a20;fill-opacity:1">
        <g
           id="g4532">
          <g
             id="g4219"
             transform="translate(24.041631,-4.2426407)">
            <path
               id="path4156"
               style="fill:#800000;fill-opacity:1;stroke:none"
               d="m -758.45782,-323.2009 c -212.05853,0 -384.00018,171.94169 -384.00018,384.000216 0,86.374984 28.499,166.002984 76.6291,230.193304 l 307.37319,409.80635 307.37112,-409.80635 c 48.1343,-64.19032 76.6291,-143.81621 76.6291,-230.193304 0,-212.058526 -171.94169,-384.000216 -384.00233,-384.000216 z m 0,639.99755 c -141.37446,0 -255.99728,-114.61865 -255.99728,-255.997334 0,-141.374464 114.62282,-256.001556 255.99728,-256.001556 141.37868,0 255.99733,114.627092 255.99733,256.001556 0,141.380794 -114.61654,255.997334 -255.99733,255.997334 z M -864.27489,-92.999022 c -30.01636,0 -54.18164,24.165268 -54.18164,54.181641 l 0,211.636721 c 0,30.01641 24.16528,54.18164 54.18164,54.18164 l 211.63672,0 c 30.01636,0 54.18164,-24.16523 54.18164,-54.18164 l 0,-211.636721 c 0,-30.016373 -24.16528,-54.181641 -54.18164,-54.181641 l -211.63672,0 z m 64.85156,59.691407 c 83.43404,-0.07151 76.10708,60.260306 75.86719,65.363281 0.0267,0.07668 0.0615,0.163997 0.0879,0.240234 -0.0879,0.230303 -0.10481,0.11963 -0.0879,-0.240234 -4.11098,-11.806169 -11.72623,-28.756028 -22.79297,-38.4375 -17.06512,-14.929016 -40.29914,-19.50643 -55.67383,-15.619141 -19.37493,5.624801 -28.17082,41.728186 13.01953,43.634766 7.48677,-0.335643 13.79743,-0.60577 14.51758,-0.578125 0.003,1.31e-4 0.0105,-1.43e-4 0.0137,0 0.0899,0.004 0.12214,0.01184 0.0312,0.02539 -18.47559,2.753867 -27.70518,9.896089 -33.36914,14.84375 -7.72594,6.748854 -13.89368,18.04096 -15.42187,20.9082 -8.52485,15.99463 -4.52096,44.683194 -5.16407,75.900394 -3.21157,-7.32176 -5.83969,-14.35622 -8.00976,-21.10546 -8.91812,0.33698 -69.7341,0.49941 -62.47852,-58.507824 3.09523,-25.172475 26.70701,-55.433592 26.70704,-55.433592 0,0 -18.62668,26.184636 -17.84376,53.355472 1.46559,50.861614 48.30665,41.11914 48.30665,41.11914 l 0.3457,1.03515 c -0.31293,-1.46131 -0.60588,-2.90672 -0.87305,-4.33007 -0.51655,-0.267 -18.549,-9.70104 -21.01562,-27.3418 -2.65407,-18.981385 6.66211,-34.929689 6.66211,-34.929689 0,0 -2.83374,18.245292 0.49804,30.726559 2.45069,9.18058 8.68849,12.41502 11.51758,13.43946 -1.90433,-27.852852 5.19275,-45.071185 10.08203,-46.857425 -4.99809,-8.553864 10.53118,-56.652149 30.74219,-57.15625 1.47064,-0.03668 2.91429,-0.05347 4.33203,-0.05469 z m 14.64258,24.664062 c 2.66452,0.701801 5.62489,1.844329 7.33984,5.322266 1.71494,3.477934 0.35242,7.14577 -0.76953,8.830078 -2.24388,3.368617 -4.72265,4.423828 -4.72265,4.423828 L -789.812,-1.180662 c -0.31167,0.882624 -0.62569,2.277271 0.16406,3.878906 1.05512,2.139796 2.25495,2.043438 1.40039,1.81836 -1.75136,-0.461291 -3.43966,-1.808745 -4.27344,-3.076172 -0.83373,-1.267432 -1.06898,-2.336067 -1.19335,-3.150391 -0.24875,-1.628648 -0.0663,-2.540874 0.0664,-3.339844 0.26542,-1.597938 0.70508,-2.765625 0.70508,-2.765625 l 12.69727,4.410156 c -10e-4,-0.143866 0.0411,-7.84e-4 -0.0137,-0.359374 -0.0719,-0.470603 -0.21001,-1.240734 -0.89062,-2.275391 -0.68061,-1.034658 -2.15948,-2.215974 -3.63086,-2.603516 z m 21.10937,35.328125 c 19.36855,0 33.97722,6.429027 43.82422,19.28711 9.76563,-12.858083 24.33268,-19.28711 43.70117,-19.28711 16.19471,0 30.0293,5.738275 41.50391,17.212891 11.47462,11.555993 17.21094,25.390623 17.21094,41.503903 l 0,67.138684 c 0,4.06901 -1.42318,7.52664 -4.27149,10.375 -2.92969,2.92968 -6.42904,4.39453 -10.49804,4.39453 l -0.24414,0 c -4.15039,0 -7.61003,-1.46485 -10.37696,-4.39453 -2.92968,-2.76698 -4.39453,-6.22461 -4.39453,-10.375 l 0,-67.138684 c 0,-7.97526 -2.80664,-14.77143 -8.42187,-20.38672 -5.61524,-5.61523 -12.45112,-8.42187 -20.50782,-8.42187 -7.97526,0 -14.77148,2.80664 -20.38671,8.42187 -5.61524,5.61529 -8.42188,12.41146 -8.42188,20.38672 l 0,67.138684 c 0,4.15039 -1.46484,7.60802 -4.39453,10.375 -2.76693,2.92968 -6.22656,4.39453 -10.37695,4.39453 l -0.24414,0 c -4.06901,0 -7.56836,-1.46485 -10.49805,-4.39453 -2.92968,-2.76698 -4.39453,-6.22461 -4.39453,-10.375 l 0,-67.138684 c 0,-7.97526 -2.80664,-14.77143 -8.42188,-20.38672 -5.61523,-5.61523 -12.4114,-8.42187 -20.38672,-8.42187 -7.97526,0 -14.76953,2.80664 -20.38476,8.42187 -5.61524,5.61529 -8.42383,12.41146 -8.42383,20.38672 l 0,67.138684 c 0,4.15039 -1.46485,7.60802 -4.39453,10.375 -2.92969,2.92968 -6.38737,4.39453 -10.375,4.39453 l -0.36719,0 c -3.98763,0 -7.44531,-1.46485 -10.375,-4.39453 -2.92969,-2.76698 -4.39453,-6.22461 -4.39453,-10.375 l 0,-67.138684 c 0,-16.11328 5.73632,-29.94791 17.21094,-41.503903 11.47461,-11.474616 25.30924,-17.212891 41.5039,-17.212891 z"
               inkscape:connector-curvature="0" />
            <g
               transform="translate(117.47116,32.812679)"
               style="font-style:normal;font-weight:normal;font-size:375px;line-height:125%;font-family:sans-serif;letter-spacing:0px;word-spacing:0px;fill:#800000;fill-opacity:1;stroke:none;stroke-width:1px;stroke-linecap:butt;stroke-linejoin:miter;stroke-opacity:1"
               id="flowRoot4179" />
          </g>
        </g>
      </g>
    </g>
  </g>
</svg>
