<svg height="428.183" width="409.89" xmlns="http://www.w3.org/2000/svg"><path d="M57.143 0C25.485 0 0 25.485 0 57.143v287.15c0 31.65 25.485 57.14 57.143 57.14h270c31.66 0 57.15-25.49 57.15-57.14V57.143c0-31.655-25.49-57.14-57.15-57.14h-270zm49.317 109.28c19.45 0 34.91 5.33 46.39 16 11.55 10.66 17.13 23.03 16.72 37.1l-.25.74h-22.94c0-10.42-3.46-18.84-10.38-25.27-6.84-6.43-16.68-9.64-29.54-9.64-11.964 0-21.16 2.72-27.589 8.17-6.348 5.37-9.521 12.41-9.521 21.12 0 7.73 3.457 14.2 10.375 19.41 6.917 5.13 18.147 9.64 33.695 13.55 18.71 4.64 32.96 11.48 42.72 20.51 9.77 9.03 14.65 20.22 14.65 33.57 0 14.32-5.86 25.84-17.58 34.54-11.72 8.71-27.02 13.06-45.9 13.06-17.738 0-33.445-4.8-47.117-14.4-13.59-9.6-20.182-22.46-19.775-38.57l.244-.74h22.949c0 11.4 4.192 20.06 12.575 26.01 8.382 5.94 18.757 8.91 31.124 8.91 12.13 0 21.73-2.57 28.81-7.69 7.08-5.13 10.62-12.09 10.62-20.88 0-8.14-3.05-14.93-9.15-20.38-6.11-5.54-16.93-10.18-32.47-13.92-18.804-4.48-33.492-11.07-44.071-19.77-10.498-8.71-15.748-19.66-15.748-32.84 0-13.84 5.657-25.39 16.969-34.67 11.393-9.28 26.123-13.92 44.19-13.92zm99.24 2.57h24.05v78.61h18.55l63.6-78.61h26.61l.37.61-68.97 85.33 73.97 91.18-.36.61h-28.69l-64.33-80.2h-20.75v80.2H205.7V111.85z"/></svg>