<svg viewBox="0 0 32 32" xmlns="http://www.w3.org/2000/svg"><path d="M28 1c1.654 0 3 1.346 3 3v24c0 1.654-1.346 3-3 3H4c-1.654 0-3-1.346-3-3V4c0-1.654 1.346-3 3-3h24m0-1H4C1.8 0 0 1.8 0 4v24c0 2.2 1.8 4 4 4h24c2.2 0 4-1.8 4-4V4c0-2.2-1.8-4-4-4z"/><path d="M21.116 24.314h3.198c0-9.169-7.459-16.633-16.627-16.633v3.189c7.403-.001 13.429 6.032 13.429 13.444zm-11.215.006a2.209 2.209 0 0 0 2.217-2.206 2.218 2.218 0 0 0-2.217-2.211 2.218 2.218 0 0 0-2.214 2.211 2.208 2.208 0 0 0 2.214 2.206zm5.562-.005h3.202c0-6.056-4.926-10.981-10.979-10.981v3.188c2.076 0 4.029.811 5.498 2.283a7.737 7.737 0 0 1 2.279 5.51z"/></svg>