<svg height="428.183" width="409.89" xmlns="http://www.w3.org/2000/svg"><path d="M57.143 0C25.485 0 0 25.485 0 57.143v287.15c0 31.65 25.485 57.14 57.143 57.14h270c31.66 0 57.15-25.49 57.15-57.14V57.143c0-31.655-25.49-57.14-57.15-57.14h-270zm62.067 109.28c20.1 0 36.09 5.37 47.97 16.12 11.88 10.66 17.66 24.82 17.33 42.48l-.24.73H161.2c0-12.45-3.66-22.3-10.99-29.54-7.32-7.24-17.66-10.86-31-10.86-13.43 0-24.133 5.41-32.108 16.23-7.976 10.82-11.963 24.25-11.963 40.28v31.86c0 16.2 3.987 29.71 11.963 40.53 7.975 10.82 18.678 16.24 32.108 16.24 13.34 0 23.68-3.59 31-10.75 7.33-7.24 10.99-17.21 10.99-29.9h23.07l.24.73c.33 16.68-5.53 30.64-17.57 41.87-12.05 11.23-27.96 16.84-47.73 16.84-20.106 0-36.503-7.12-49.198-21.36-12.614-14.24-18.922-32.3-18.922-54.2v-31.61c0-21.89 6.308-39.96 18.922-54.2 12.695-14.33 29.092-21.49 49.198-21.49zm88.86 2.57h121.1v17.21l-95.34 141.72h99.37v18.8H206.73v-17.82l94.97-140.99h-93.63v-18.92z"/></svg>