<?xml version="1.0" encoding="UTF-8" standalone="no"?>
<!-- Created with Inkscape (http://www.inkscape.org/) -->

<svg
   xmlns:dc="http://purl.org/dc/elements/1.1/"
   xmlns:cc="http://creativecommons.org/ns#"
   xmlns:rdf="http://www.w3.org/1999/02/22-rdf-syntax-ns#"
   xmlns:svg="http://www.w3.org/2000/svg"
   xmlns="http://www.w3.org/2000/svg"
   xmlns:sodipodi="http://sodipodi.sourceforge.net/DTD/sodipodi-0.dtd"
   xmlns:inkscape="http://www.inkscape.org/namespaces/inkscape"
   width="183.44444mm"
   height="183.44444mm"
   viewBox="0 0 649.99999 649.99999"
   id="svg4846"
   version="1.1"
   inkscape:version="0.91 r13725"
   sodipodi:docname="muth-smartphone.svg">
  <defs
     id="defs4848" />
  <sodipodi:namedview
     id="base"
     pagecolor="#ffffff"
     bordercolor="#666666"
     borderopacity="1.0"
     inkscape:pageopacity="0.0"
     inkscape:pageshadow="2"
     inkscape:zoom="0.98994949"
     inkscape:cx="193.61335"
     inkscape:cy="276.43508"
     inkscape:document-units="px"
     inkscape:current-layer="layer1"
     showgrid="false"
     inkscape:window-width="1920"
     inkscape:window-height="1017"
     inkscape:window-x="-8"
     inkscape:window-y="-8"
     inkscape:window-maximized="1"
     fit-margin-top="0"
     fit-margin-left="0"
     fit-margin-right="0"
     fit-margin-bottom="0" />
  <metadata
     id="metadata4851">
    <rdf:RDF>
      <cc:Work
         rdf:about="">
        <dc:format>image/svg+xml</dc:format>
        <dc:type
           rdf:resource="http://purl.org/dc/dcmitype/StillImage" />
        <dc:title />
      </cc:Work>
    </rdf:RDF>
  </metadata>
  <g
     inkscape:label="Vrstva 1"
     inkscape:groupmode="layer"
     id="layer1"
     transform="translate(-49.285156,-218.79102)">
    <path
       style="fill:#800000;fill-opacity:1;stroke:none;stroke-width:15;stroke-miterlimit:4;stroke-dasharray:none;stroke-opacity:1"
       d="M 43.083984 2.390625 C 18.730413 2.390625 -0.87695312 21.996039 -0.87695312 46.349609 L -0.87695312 48.529297 C -0.87695312 22.968157 19.702529 2.390625 45.263672 2.390625 L 43.083984 2.390625 z M 602.98438 2.390625 C 628.54552 2.390625 649.12305 22.968157 649.12305 48.529297 L 649.12305 46.349609 C 649.12305 21.996039 629.51763 2.390625 605.16406 2.390625 L 602.98438 2.390625 z M 246.50391 139.39062 C 230.22725 139.39062 217.12305 152.49482 217.12305 168.77148 L 217.12305 486.00977 C 217.12305 502.28642 230.22725 515.39063 246.50391 515.39062 L 401.74414 515.39062 C 418.0208 515.39062 431.12305 502.28642 431.12305 486.00977 L 431.12305 168.77148 C 431.12305 152.49482 418.0208 139.39063 401.74414 139.39062 L 246.50391 139.39062 z M 284.5918 154.39062 L 359.3457 154.39062 C 362.46087 154.39062 364.96875 156.8985 364.96875 160.01367 L 364.96875 162.76758 C 364.96875 165.88275 362.46087 168.39062 359.3457 168.39062 L 284.5918 168.39062 C 281.47663 168.39062 278.96875 165.88275 278.96875 162.76758 L 278.96875 160.01367 C 278.96875 156.8985 281.47663 154.39062 284.5918 154.39062 z M 237.49414 180.18945 L 406.44336 180.18945 C 407.84242 180.18945 408.96875 181.31578 408.96875 182.71484 L 408.96875 421.66406 C 408.96875 423.06312 407.84242 424.18945 406.44336 424.18945 L 237.49414 424.18945 C 236.09508 424.18945 234.96875 423.06312 234.96875 421.66406 L 234.96875 182.71484 C 234.96875 181.31578 236.09508 180.18945 237.49414 180.18945 z M 321.96875 447.03906 A 17.5 17.5 0 0 1 339.46875 464.53906 A 17.5 17.5 0 0 1 321.96875 482.03906 A 17.5 17.5 0 0 1 304.46875 464.53906 A 17.5 17.5 0 0 1 321.96875 447.03906 z M -0.87695312 606.25 L -0.87695312 608.43164 C -0.87695312 609.17696 -0.85661593 609.91829 -0.8203125 610.6543 C -0.76498039 610.69795 -0.70961143 610.74148 -0.65429688 610.78516 C -0.79862013 609.29316 -0.87695312 607.7811 -0.87695312 606.25 z M 649.12305 606.25 C 649.12305 631.81114 628.54552 652.39063 602.98438 652.39062 L 605.16406 652.39062 C 629.51763 652.39062 649.12305 632.78521 649.12305 608.43164 L 649.12305 606.25 z M 2.8808594 626.26758 C 8.2381572 638.38037 18.888801 647.58799 31.941406 650.97461 C 31.664941 650.71205 31.388086 650.44971 31.111328 650.1875 C 19.330159 646.41798 9.6477131 638.06179 4.1269531 627.19922 C 3.7872881 626.94968 3.2555756 626.54513 2.8808594 626.26758 z "
       transform="translate(49.285156,218.79102)"
       id="rect4134" />
    <rect
       style="fill:#ffffff;fill-opacity:1;stroke:none;stroke-width:15;stroke-miterlimit:4;stroke-dasharray:none;stroke-opacity:1"
       id="rect4174"
       width="182.83762"
       height="94.954338"
       x="-19.40522"
       y="218.25278"
       ry="46.139198" />
    <rect
       style="fill:#ffffff;fill-opacity:1;stroke:none;stroke-width:15;stroke-miterlimit:4;stroke-dasharray:none;stroke-opacity:1"
       id="rect4176"
       width="180.81731"
       height="101.01525"
       x="633.15332"
       y="201.08018"
       ry="46.139198" />
    <rect
       style="fill:#ffffff;fill-opacity:1;stroke:none;stroke-width:15;stroke-miterlimit:4;stroke-dasharray:none;stroke-opacity:1"
       id="rect4178"
       width="219.20311"
       height="139.40105"
       x="4.8384433"
       y="806.16156"
       ry="46.139198" />
    <rect
       style="fill:#ffffff;fill-opacity:1;stroke:none;stroke-width:15;stroke-miterlimit:4;stroke-dasharray:none;stroke-opacity:1"
       id="rect4180"
       width="196.97975"
       height="119.198"
       x="625.07208"
       y="810.20215"
       ry="46.139198" />
  </g>
</svg>
