<svg height="428.183" width="409.89" xmlns="http://www.w3.org/2000/svg"><path d="M57.143 0C25.485 0 0 25.485 0 57.143v287.15c0 31.65 25.485 57.14 57.143 57.14h270c31.66 0 57.15-25.49 57.15-57.14V57.143c0-31.655-25.49-57.14-57.15-57.14h-270zm-6.235 111.85h54.562c23.28 0 41.96 7.16 56.03 21.48 14.08 14.24 21.12 32.68 21.12 55.3v24.29c0 22.71-7.04 41.18-21.12 55.42-14.07 14.16-32.75 21.24-56.03 21.24H50.908V111.85zm164.55 0h116.58v18.92h-92.53v57.49h81.42v18.92h-81.42v63.6h93.87v18.8h-117.92V111.85zm-140.5 18.92v140.01h30.515c16.44 0 29.38-5.41 38.82-16.23 9.52-10.83 14.28-24.7 14.28-41.63v-24.54c0-16.76-4.76-30.55-14.28-41.38-9.44-10.82-22.38-16.23-38.82-16.23H74.958z"/></svg>