<?xml version="1.0" encoding="UTF-8" standalone="no"?>
<!-- Created with Inkscape (http://www.inkscape.org/) -->

<svg
   xmlns:dc="http://purl.org/dc/elements/1.1/"
   xmlns:cc="http://creativecommons.org/ns#"
   xmlns:rdf="http://www.w3.org/1999/02/22-rdf-syntax-ns#"
   xmlns:svg="http://www.w3.org/2000/svg"
   xmlns="http://www.w3.org/2000/svg"
   xmlns:sodipodi="http://sodipodi.sourceforge.net/DTD/sodipodi-0.dtd"
   xmlns:inkscape="http://www.inkscape.org/namespaces/inkscape"
   width="183.44444mm"
   height="183.44444mm"
   viewBox="0 0 649.99999 649.99999"
   id="svg4846"
   version="1.1"
   inkscape:version="0.91 r13725"
   sodipodi:docname="muth-smartphone.svg">
  <defs
     id="defs4848" />
  <sodipodi:namedview
     id="base"
     pagecolor="#ffffff"
     bordercolor="#666666"
     borderopacity="1.0"
     inkscape:pageopacity="0.0"
     inkscape:pageshadow="2"
     inkscape:zoom="0.98994949"
     inkscape:cx="344.63116"
     inkscape:cy="276.43508"
     inkscape:document-units="px"
     inkscape:current-layer="layer1"
     showgrid="false"
     inkscape:window-width="1920"
     inkscape:window-height="1017"
     inkscape:window-x="-8"
     inkscape:window-y="-8"
     inkscape:window-maximized="1"
     fit-margin-top="0"
     fit-margin-left="0"
     fit-margin-right="0"
     fit-margin-bottom="0" />
  <metadata
     id="metadata4851">
    <rdf:RDF>
      <cc:Work
         rdf:about="">
        <dc:format>image/svg+xml</dc:format>
        <dc:type
           rdf:resource="http://purl.org/dc/dcmitype/StillImage" />
        <dc:title></dc:title>
      </cc:Work>
    </rdf:RDF>
  </metadata>
  <g
     inkscape:label="Vrstva 1"
     inkscape:groupmode="layer"
     id="layer1"
     transform="translate(-49.285156,-218.79102)">
    <path
       style="fill:#000000;fill-opacity:1"
       d="m 93.246094,218.79102 c -24.353571,0 -43.960938,19.60541 -43.960938,43.95898 l 0,562.08203 c 0,24.35357 19.607367,43.95899 43.960938,43.95899 l 562.080076,0 c 24.35357,0 43.95899,-19.60542 43.95899,-43.95899 l 0,-562.08203 c 0,-24.35357 -19.60542,-43.95898 -43.95899,-43.95898 l -562.080076,0 z m 203.419926,137 155.24023,0 c 16.27666,0 29.37891,13.1042 29.37891,29.38086 l 0,317.23828 c 0,16.27665 -13.10225,29.38086 -29.37891,29.38086 l -155.24023,0 c -16.27666,0 -29.38086,-13.10421 -29.38086,-29.38086 l 0,-317.23828 c 0,-16.27666 13.1042,-29.38086 29.38086,-29.38086 z"
       id="rect4176"
       inkscape:connector-curvature="0" />
    <rect
       style="fill:#000000;fill-opacity:1"
       id="rect4167"
       width="174"
       height="244"
       x="287.28571"
       y="396.59076"
       ry="2.5253813" />
    <circle
       style="opacity:1;fill:#000000;fill-opacity:1;stroke:none;stroke-width:5;stroke-miterlimit:4;stroke-dasharray:none;stroke-opacity:0.39215686"
       id="path4169"
       cx="374.28571"
       cy="680.94049"
       r="17.5" />
    <rect
       style="fill:#000000;fill-opacity:1;stroke:none;stroke-width:5;stroke-miterlimit:4;stroke-dasharray:none;stroke-opacity:0.39215686"
       id="rect4171"
       width="86"
       height="14"
       x="331.28571"
       y="370.79083"
       ry="5.6230478" />
  </g>
</svg>
