<?xml version="1.0" encoding="UTF-8" standalone="no"?>
<svg
   xmlns:dc="http://purl.org/dc/elements/1.1/"
   xmlns:cc="http://creativecommons.org/ns#"
   xmlns:rdf="http://www.w3.org/1999/02/22-rdf-syntax-ns#"
   xmlns:svg="http://www.w3.org/2000/svg"
   xmlns="http://www.w3.org/2000/svg"
   xmlns:sodipodi="http://sodipodi.sourceforge.net/DTD/sodipodi-0.dtd"
   xmlns:inkscape="http://www.inkscape.org/namespaces/inkscape"
   id="svg2"
   version="1.1"
   inkscape:version="0.91 r13725"
   sodipodi:docname="muth-linkedin.svg"
   width="32"
   height="32">
  <metadata
     id="metadata12">
    <rdf:RDF>
      <cc:Work
         rdf:about="">
        <dc:format>image/svg+xml</dc:format>
        <dc:type
           rdf:resource="http://purl.org/dc/dcmitype/StillImage" />
        <dc:title></dc:title>
      </cc:Work>
    </rdf:RDF>
  </metadata>
  <defs
     id="defs10" />
  <sodipodi:namedview
     pagecolor="#ffffff"
     bordercolor="#666666"
     borderopacity="1"
     objecttolerance="10"
     gridtolerance="10"
     guidetolerance="10"
     inkscape:pageopacity="0"
     inkscape:pageshadow="2"
     inkscape:window-width="1920"
     inkscape:window-height="1017"
     id="namedview8"
     showgrid="false"
     fit-margin-top="0"
     fit-margin-left="0"
     fit-margin-right="0"
     fit-margin-bottom="0"
     inkscape:zoom="9.44"
     inkscape:cx="49.972286"
     inkscape:cy="3.5297756"
     inkscape:window-x="-8"
     inkscape:window-y="-8"
     inkscape:window-maximized="1"
     inkscape:current-layer="svg2" />
  <path
     d="m 28,1 c 1.654,0 3,1.346 3,3 l 0,24 c 0,1.654 -1.346,3 -3,3 L 4,31 C 2.346,31 1,29.654 1,28 L 1,4 C 1,2.346 2.346,1 4,1 L 28,1 M 28,0 4,0 C 1.8,0 0,1.8 0,4 l 0,24 c 0,2.2 1.8,4 4,4 l 24,0 c 2.2,0 4,-1.8 4,-4 L 32,4 C 32,1.8 30.2,0 28,0 Z"
     id="path4"
     inkscape:connector-curvature="0" />
  <path
     d="m 24.299,23.921 0,-6.137 c 0,-3.288 -1.755,-4.818 -4.096,-4.818 -1.889,0 -2.735,1.039 -3.206,1.768 l 0,-1.517 -3.558,0 c 0.047,1.005 0,10.704 0,10.704 l 3.558,0 0,-5.978 c 0,-0.319 0.023,-0.639 0.117,-0.867 0.257,-0.639 0.842,-1.301 1.825,-1.301 1.288,0 1.803,0.981 1.803,2.42 l 0,5.727 3.557,-0.001 z M 9.69,11.756 c 1.24,0 2.013,-0.823 2.013,-1.85 -0.023,-1.05 -0.773,-1.849 -1.99,-1.849 -1.217,0 -2.012,0.799 -2.012,1.849 0,1.028 0.772,1.85 1.967,1.85 l 0.022,0 z m 1.779,12.165 0,-10.704 -3.557,0 0,10.704 3.557,0 z"
     id="path6"
     inkscape:connector-curvature="0" />
</svg>
