<?xml version="1.0" encoding="UTF-8" standalone="no"?>
<svg
   xmlns:dc="http://purl.org/dc/elements/1.1/"
   xmlns:cc="http://creativecommons.org/ns#"
   xmlns:rdf="http://www.w3.org/1999/02/22-rdf-syntax-ns#"
   xmlns:svg="http://www.w3.org/2000/svg"
   xmlns="http://www.w3.org/2000/svg"
   xmlns:sodipodi="http://sodipodi.sourceforge.net/DTD/sodipodi-0.dtd"
   xmlns:inkscape="http://www.inkscape.org/namespaces/inkscape"
   height="401.43301"
   width="384.293"
   id="svg2"
   version="1.1"
   inkscape:version="0.91 r13725"
   sodipodi:docname="muth-CZ.svg">
  <metadata
     id="metadata10">
    <rdf:RDF>
      <cc:Work
         rdf:about="">
        <dc:format>image/svg+xml</dc:format>
        <dc:type
           rdf:resource="http://purl.org/dc/dcmitype/StillImage" />
        <dc:title></dc:title>
      </cc:Work>
    </rdf:RDF>
  </metadata>
  <defs
     id="defs8" />
  <sodipodi:namedview
     pagecolor="#ffffff"
     bordercolor="#666666"
     borderopacity="1"
     objecttolerance="10"
     gridtolerance="10"
     guidetolerance="10"
     inkscape:pageopacity="0"
     inkscape:pageshadow="2"
     inkscape:window-width="1920"
     inkscape:window-height="1017"
     id="namedview6"
     showgrid="false"
     fit-margin-top="0"
     fit-margin-left="0"
     fit-margin-right="0"
     fit-margin-bottom="0"
     inkscape:zoom="0.55116619"
     inkscape:cx="204.94501"
     inkscape:cy="42.194709"
     inkscape:window-x="-8"
     inkscape:window-y="-8"
     inkscape:window-maximized="1"
     inkscape:current-layer="svg2" />
  <path
     d="M 57.143,0 C 25.485,0 0,25.485 0,57.143 l 0,287.15 c 0,31.65 25.485,57.14 57.143,57.14 l 270,0 c 31.66,0 57.15,-25.49 57.15,-57.14 l 0,-287.15 c 0,-31.655 -25.49,-57.14 -57.15,-57.14 l -270,0 z m 62.067,109.28 c 20.1,0 36.09,5.37 47.97,16.12 11.88,10.66 17.66,24.82 17.33,42.48 l -0.24,0.73 -23.07,0 c 0,-12.45 -3.66,-22.3 -10.99,-29.54 -7.32,-7.24 -17.66,-10.86 -31,-10.86 -13.43,0 -24.133,5.41 -32.108,16.23 -7.976,10.82 -11.963,24.25 -11.963,40.28 l 0,31.86 c 0,16.2 3.987,29.71 11.963,40.53 7.975,10.82 18.678,16.24 32.108,16.24 13.34,0 23.68,-3.59 31,-10.75 7.33,-7.24 10.99,-17.21 10.99,-29.9 l 23.07,0 0.24,0.73 c 0.33,16.68 -5.53,30.64 -17.57,41.87 -12.05,11.23 -27.96,16.84 -47.73,16.84 -20.106,0 -36.503,-7.12 -49.198,-21.36 C 57.398,256.54 51.09,238.48 51.09,216.58 l 0,-31.61 c 0,-21.89 6.308,-39.96 18.922,-54.2 12.695,-14.33 29.092,-21.49 49.198,-21.49 z m 88.86,2.57 121.1,0 0,17.21 -95.34,141.72 99.37,0 0,18.8 -126.47,0 0,-17.82 94.97,-140.99 -93.63,0 0,-18.92 z"
     id="path4"
     inkscape:connector-curvature="0" />
</svg>
