<?xml version="1.0" encoding="UTF-8" standalone="no"?>
<svg
   xmlns:dc="http://purl.org/dc/elements/1.1/"
   xmlns:cc="http://creativecommons.org/ns#"
   xmlns:rdf="http://www.w3.org/1999/02/22-rdf-syntax-ns#"
   xmlns:svg="http://www.w3.org/2000/svg"
   xmlns="http://www.w3.org/2000/svg"
   xmlns:sodipodi="http://sodipodi.sourceforge.net/DTD/sodipodi-0.dtd"
   xmlns:inkscape="http://www.inkscape.org/namespaces/inkscape"
   viewBox="0 0 32 32"
   id="svg2"
   version="1.1"
   inkscape:version="0.91 r13725"
   sodipodi:docname="muth-fb.svg"
   width="32"
   height="32">
  <metadata
     id="metadata12">
    <rdf:RDF>
      <cc:Work
         rdf:about="">
        <dc:format>image/svg+xml</dc:format>
        <dc:type
           rdf:resource="http://purl.org/dc/dcmitype/StillImage" />
        <dc:title></dc:title>
      </cc:Work>
    </rdf:RDF>
  </metadata>
  <defs
     id="defs10" />
  <sodipodi:namedview
     pagecolor="#ffffff"
     bordercolor="#666666"
     borderopacity="1"
     objecttolerance="10"
     gridtolerance="10"
     guidetolerance="10"
     inkscape:pageopacity="0"
     inkscape:pageshadow="2"
     inkscape:window-width="1920"
     inkscape:window-height="1017"
     id="namedview8"
     showgrid="false"
     fit-margin-top="0"
     fit-margin-left="0"
     fit-margin-right="0"
     fit-margin-bottom="0"
     inkscape:zoom="7.375"
     inkscape:cx="16"
     inkscape:cy="-0.27118644"
     inkscape:window-x="-8"
     inkscape:window-y="-8"
     inkscape:window-maximized="1"
     inkscape:current-layer="svg2" />
  <path
     d="m 28,1 c 1.654,0 3,1.346 3,3 l 0,24 c 0,1.654 -1.346,3 -3,3 L 4,31 C 2.346,31 1,29.654 1,28 L 1,4 C 1,2.346 2.346,1 4,1 L 28,1 M 28,0 4,0 C 1.8,0 0,1.8 0,4 l 0,24 c 0,2.2 1.8,4 4,4 l 24,0 c 2.2,0 4,-1.8 4,-4 L 32,4 C 32,1.8 30.2,0 28,0 Z"
     id="path4"
     inkscape:connector-curvature="0" />
  <path
     d="m 13.597,25.261 3.827,0 0,-9.262 2.553,0 0.338,-3.191 -2.891,0 0.004,-1.598 c 0,-0.832 0.079,-1.278 1.273,-1.278 l 1.596,0 0,-3.193 -2.554,0 c -3.067,0 -4.146,1.549 -4.146,4.152 l 0,1.916 -1.912,0 0,3.192 1.912,0 0,9.262 z"
     id="path6"
     inkscape:connector-curvature="0" />
</svg>
