<?xml version="1.0" encoding="UTF-8" standalone="no"?>
<svg
   xmlns:dc="http://purl.org/dc/elements/1.1/"
   xmlns:cc="http://creativecommons.org/ns#"
   xmlns:rdf="http://www.w3.org/1999/02/22-rdf-syntax-ns#"
   xmlns:svg="http://www.w3.org/2000/svg"
   xmlns="http://www.w3.org/2000/svg"
   xmlns:sodipodi="http://sodipodi.sourceforge.net/DTD/sodipodi-0.dtd"
   xmlns:inkscape="http://www.inkscape.org/namespaces/inkscape"
   height="401.43301"
   width="384.293"
   id="svg2"
   version="1.1"
   inkscape:version="0.91 r13725"
   sodipodi:docname="muth-SK.svg">
  <metadata
     id="metadata10">
    <rdf:RDF>
      <cc:Work
         rdf:about="">
        <dc:format>image/svg+xml</dc:format>
        <dc:type
           rdf:resource="http://purl.org/dc/dcmitype/StillImage" />
        <dc:title></dc:title>
      </cc:Work>
    </rdf:RDF>
  </metadata>
  <defs
     id="defs8" />
  <sodipodi:namedview
     pagecolor="#ffffff"
     bordercolor="#666666"
     borderopacity="1"
     objecttolerance="10"
     gridtolerance="10"
     guidetolerance="10"
     inkscape:pageopacity="0"
     inkscape:pageshadow="2"
     inkscape:window-width="1920"
     inkscape:window-height="1017"
     id="namedview6"
     showgrid="false"
     fit-margin-top="0"
     fit-margin-left="0"
     fit-margin-right="0"
     fit-margin-bottom="0"
     inkscape:zoom="0.55116619"
     inkscape:cx="204.94501"
     inkscape:cy="187.34148"
     inkscape:window-x="-8"
     inkscape:window-y="-8"
     inkscape:window-maximized="1"
     inkscape:current-layer="svg2" />
  <path
     d="M 57.143,0 C 25.485,0 0,25.485 0,57.143 l 0,287.15 c 0,31.65 25.485,57.14 57.143,57.14 l 270,0 c 31.66,0 57.15,-25.49 57.15,-57.14 l 0,-287.15 c 0,-31.655 -25.49,-57.14 -57.15,-57.14 l -270,0 z m 49.317,109.28 c 19.45,0 34.91,5.33 46.39,16 11.55,10.66 17.13,23.03 16.72,37.1 l -0.25,0.74 -22.94,0 c 0,-10.42 -3.46,-18.84 -10.38,-25.27 -6.84,-6.43 -16.68,-9.64 -29.54,-9.64 -11.964,0 -21.16,2.72 -27.589,8.17 -6.348,5.37 -9.521,12.41 -9.521,21.12 0,7.73 3.457,14.2 10.375,19.41 6.917,5.13 18.147,9.64 33.695,13.55 18.71,4.64 32.96,11.48 42.72,20.51 9.77,9.03 14.65,20.22 14.65,33.57 0,14.32 -5.86,25.84 -17.58,34.54 -11.72,8.71 -27.02,13.06 -45.9,13.06 -17.738,0 -33.445,-4.8 -47.117,-14.4 -13.59,-9.6 -20.182,-22.46 -19.775,-38.57 l 0.244,-0.74 22.949,0 c 0,11.4 4.192,20.06 12.575,26.01 8.382,5.94 18.757,8.91 31.124,8.91 12.13,0 21.73,-2.57 28.81,-7.69 7.08,-5.13 10.62,-12.09 10.62,-20.88 0,-8.14 -3.05,-14.93 -9.15,-20.38 -6.11,-5.54 -16.93,-10.18 -32.47,-13.92 C 86.316,206 71.628,199.41 61.049,190.71 50.551,182 45.301,171.05 45.301,157.87 c 0,-13.84 5.657,-25.39 16.969,-34.67 11.393,-9.28 26.123,-13.92 44.19,-13.92 z m 99.24,2.57 24.05,0 0,78.61 18.55,0 63.6,-78.61 26.61,0 0.37,0.61 -68.97,85.33 73.97,91.18 -0.36,0.61 -28.69,0 -64.33,-80.2 -20.75,0 0,80.2 -24.05,0 0,-177.73 z"
     id="path4"
     inkscape:connector-curvature="0" />
</svg>
